<?xml version="1.0" standalone="no"?>
<!DOCTYPE svg PUBLIC "-//W3C//DTD SVG 20010904//EN"
 "http://www.w3.org/TR/2001/REC-SVG-20010904/DTD/svg10.dtd">
<svg version="1.0" xmlns="http://www.w3.org/2000/svg"
 width="700.000000pt" height="700.000000pt" viewBox="0 0 700.000000 700.000000"
 preserveAspectRatio="xMidYMid meet">
<metadata>
Created by potrace 1.14, written by Peter Selinger 2001-2017
</metadata>
<g transform="translate(0.000000,700.000000) scale(0.100000,-0.100000)"
fill="#000000" stroke="none">
<path d="M428 6742 l-168 -2 -1 -98 c-3 -457 0 -6374 3 -6378 3 -2 125 -5 271
-5 192 -1 265 -5 260 -13 -3 -6 0 -5 8 2 18 17 123 17 113 -1 -6 -9 -4 -9 7
-1 21 17 122 18 113 2 -6 -10 -4 -11 7 -1 18 18 123 18 113 1 -6 -10 -5 -10 7
-1 20 16 121 15 113 0 -4 -8 -2 -7 7 0 18 18 123 18 113 1 -6 -10 -4 -10 7 -2
21 17 123 18 113 2 -6 -10 -5 -10 7 -1 20 16 203 17 193 0 -6 -9 -4 -9 7 -1
21 17 123 18 113 2 -6 -10 -5 -10 7 -1 20 16 442 16 432 -1 -5 -7 -2 -7 8 1
20 16 121 15 113 0 -4 -8 -2 -7 7 0 18 18 123 18 113 1 -6 -10 -4 -10 7 -2 21
17 122 18 113 2 -6 -10 -4 -11 7 0 7 6 37 12 67 12 40 0 51 -3 46 -12 -6 -10
-5 -10 7 -1 20 16 562 16 552 0 -5 -9 -3 -9 8 -1 21 17 123 18 113 2 -6 -10
-5 -10 7 -1 20 16 203 17 193 0 -6 -9 -4 -9 7 -1 21 17 122 18 113 2 -6 -10
-4 -11 7 -1 18 18 123 18 113 1 -6 -10 -5 -10 7 -1 20 16 121 15 113 0 -4 -8
-2 -7 7 1 18 17 123 17 113 0 -6 -10 -4 -10 7 -2 21 17 122 18 113 2 -6 -10
-4 -11 7 0 18 17 123 17 113 0 -6 -10 -5 -10 7 -1 20 16 162 17 153 0 -6 -9
-5 -9 7 0 20 16 121 15 113 0 -4 -8 -2 -7 7 1 7 6 37 12 67 12 40 0 51 -3 46
-12 -6 -10 -4 -10 7 -2 21 17 122 18 113 2 -6 -10 -4 -11 7 0 18 17 123 17
113 0 -6 -10 -5 -10 7 -1 20 16 162 17 153 0 -6 -9 -5 -9 7 0 20 16 121 15
113 0 -4 -8 -2 -7 7 1 18 17 123 17 113 0 -6 -10 -4 -10 7 -2 21 17 122 18
113 2 -6 -10 -4 -11 7 0 18 17 123 17 113 0 -6 -10 -5 -10 7 -1 19 16 281 15
272 -1 -3 -6 0 -6 8 2 18 17 123 17 113 0 -6 -10 -4 -10 7 -2 21 17 123 18
113 2 -6 -10 -5 -10 7 -2 9 8 102 12 293 12 153 1 280 3 283 5 2 3 4 175 5
383 0 264 4 383 12 393 8 11 8 13 -1 7 -18 -10 -18 95 -1 113 11 11 10 13 0 7
-16 -9 -15 92 2 113 8 11 8 13 -1 7 -18 -10 -18 95 -1 113 8 9 9 11 1 7 -15
-8 -16 93 0 113 8 10 8 13 1 8 -17 -10 -17 412 -1 432 9 12 9 13 -1 7 -16 -10
-15 92 2 113 8 11 8 13 -1 7 -17 -10 -16 173 0 193 9 12 9 13 -1 7 -16 -10
-15 92 2 113 8 11 8 13 -1 8 -16 -10 -16 532 0 552 9 12 9 13 0 7 -18 -10 -18
95 -1 113 11 11 10 13 0 7 -16 -9 -15 92 2 113 8 11 8 13 -1 7 -18 -10 -18 95
-1 113 8 9 9 11 1 7 -15 -8 -16 93 0 113 8 10 8 13 1 8 -17 -10 -17 412 -1
432 9 12 9 13 -1 7 -16 -10 -15 92 2 113 8 11 8 13 -1 7 -17 -10 -16 173 0
193 9 12 9 13 -1 7 -16 -10 -15 92 2 113 8 11 8 13 -1 7 -17 -10 -16 173 0
193 9 12 9 13 -1 7 -16 -10 -15 92 2 113 8 11 8 13 -1 7 -17 -10 -16 173 0
193 9 12 9 13 -1 7 -16 -10 -15 92 2 113 8 11 8 13 -1 8 -16 -10 -16 532 0
552 9 12 9 13 0 7 -18 -10 -18 95 0 113 10 11 9 13 -1 7 -16 -9 -15 92 2 113
8 11 8 13 -1 7 -18 -10 -18 95 0 113 7 9 8 11 0 7 -15 -8 -16 93 0 113 8 10 8
12 1 8 -8 -5 -12 92 -12 359 0 201 -3 368 -6 371 -5 5 -6010 10 -6308 5z"/>
</g>
</svg>
